<svg width="762" height="157" viewBox="0 0 762 157" fill="none" xmlns="http://www.w3.org/2000/svg">
<g opacity="0.3">
<path d="M1.90503 0V155.225" stroke="#242424" stroke-dasharray="4 2"/>
<path d="M104.645 0V155.225" stroke="#242424" stroke-dasharray="4 2"/>
<path d="M207.384 0V155.225" stroke="#242424" stroke-dasharray="4 2"/>
<path d="M310.124 0V155.225" stroke="#242424" stroke-dasharray="4 2"/>
<path d="M412.864 0V155.225" stroke="#242424" stroke-dasharray="4 2"/>
<path d="M515.603 0V155.225" stroke="#242424" stroke-dasharray="4 2"/>
<path d="M618.342 0V155.225" stroke="#242424" stroke-dasharray="4 2"/>
<path d="M709.981 1.77539V157" stroke="#242424" stroke-dasharray="4 2"/>
<path d="M379.03 20.827L0.000316144 21.5715" stroke="#242424" stroke-dasharray="4 2"/>
<path d="M379.523 62.9011L0.493114 63.6456" stroke="#242424" stroke-dasharray="4 2"/>
<path d="M380.016 104.975L0.985546 105.72" stroke="#242424" stroke-dasharray="4 2"/>
<path d="M380.508 147.049L1.47834 147.794" stroke="#242424" stroke-dasharray="4 2"/>
<path d="M760.524 20.1208L381.494 20.8653" stroke="#242424" stroke-dasharray="4 2"/>
<path d="M758.094 62.1378L379.064 62.8823" stroke="#242424" stroke-dasharray="4 2"/>
<path d="M760.984 104.155L381.954 104.899" stroke="#242424" stroke-dasharray="4 2"/>
<path d="M760.984 146.172L381.954 146.916" stroke="#242424" stroke-dasharray="4 2"/>
</g>
<g opacity="0.6">
<path fill-rule="evenodd" clip-rule="evenodd" d="M590 37C586.134 37 583 40.134 583 44C583 47.866 586.134 51 590 51C593.866 51 597 47.866 597 44C597 40.134 593.866 37 590 37ZM590.539 41.8462C590.539 41.5488 590.298 41.3077 590 41.3077C589.703 41.3077 589.462 41.5488 589.462 41.8462V43.4615H587.847C587.549 43.4615 587.308 43.7026 587.308 44C587.308 44.2974 587.549 44.5385 587.847 44.5385H589.462V46.1538C589.462 46.4512 589.703 46.6923 590 46.6923C590.298 46.6923 590.539 46.4512 590.539 46.1538V44.5385H592.154C592.452 44.5385 592.693 44.2974 592.693 44C592.693 43.7026 592.452 43.4615 592.154 43.4615H590.539V41.8462Z" fill="#282828"/>
<path d="M609.745 50.4357L609.741 50.4331L609.725 50.4243C609.711 50.4167 609.691 50.4058 609.665 50.3915C609.615 50.3631 609.542 50.3214 609.45 50.2669C609.266 50.1579 609.005 49.9974 608.693 49.7888C608.07 49.3721 607.237 48.7597 606.402 47.9769C604.751 46.4279 603 44.1266 603 41.2917C603 39.177 604.769 37.5 606.904 37.5C608.16 37.5 609.284 38.0771 610 38.9817C610.717 38.0771 611.841 37.5 613.097 37.5C615.232 37.5 617 39.177 617 41.2917C617 44.1266 615.25 46.4279 613.598 47.9769C612.764 48.7597 611.931 49.3721 611.308 49.7888C610.996 49.9974 610.735 50.1579 610.551 50.2669C610.459 50.3214 610.386 50.3631 610.335 50.3915C610.31 50.4058 610.29 50.4167 610.276 50.4243L610.26 50.4331L610.255 50.4357L610.253 50.4367C610.095 50.5211 609.905 50.5211 609.747 50.4367L609.745 50.4357Z" fill="#282828"/>
<g filter="url(#filter0_bd_191_312)">
<rect x="610" y="25" width="32" height="16" rx="4" fill="#2D2D2D" fill-opacity="0.2" shape-rendering="crispEdges"/>
<rect x="610.25" y="25.25" width="31.5" height="15.5" rx="3.75" stroke="#252525" stroke-width="0.5" shape-rendering="crispEdges"/>
<path d="M616.469 35C616.49 34.8828 616.502 34.7135 616.504 34.4922C616.509 34.2708 616.512 34.0156 616.512 33.7266V32C616.512 31.7109 616.509 31.4557 616.504 31.2344C616.502 31.0104 616.49 30.8398 616.469 30.7227H617.067V34.5195H617.723C618.012 34.5195 618.267 34.5169 618.489 34.5117C618.713 34.5065 618.883 34.4935 619 34.4727V35H616.469ZM619.575 35V34.5781H620.278V31.1484H619.575V30.7227H621.551V31.1484H620.832V34.5781H621.551V35H619.575ZM624.907 35L623.047 32.8477L623.442 32.4805L625.625 35H624.907ZM622.493 35C622.513 34.8828 622.525 34.7135 622.528 34.4922C622.533 34.2708 622.536 34.0156 622.536 33.7266V32C622.536 31.7109 622.533 31.4557 622.528 31.2344C622.525 31.0104 622.513 30.8398 622.493 30.7227H623.09V35H622.493ZM622.887 32.9414L624.731 30.7227H625.434L623.575 32.832L623.266 32.8203L622.887 32.9414ZM626.328 35C626.349 34.8828 626.361 34.7135 626.364 34.4922C626.369 34.2708 626.371 34.0156 626.371 33.7266V32C626.371 31.7109 626.369 31.4557 626.364 31.2344C626.361 31.0104 626.349 30.8398 626.328 30.7227H628.817V31.207H626.926V32.5273H628.598V32.9961H626.926V34.5195H627.7C627.989 34.5195 628.232 34.5169 628.43 34.5117C628.631 34.5065 628.789 34.4935 628.907 34.4727V35H626.328ZM630.063 33.7109C630.052 33.2865 630.043 32.8177 630.036 32.3047C630.03 31.7891 630 31.2135 629.946 30.5781H630.692C630.634 31.2135 630.603 31.7891 630.598 32.3047C630.593 32.8177 630.585 33.2865 630.575 33.7109H630.063ZM630.313 35.0703C630.203 35.0703 630.11 35.0326 630.032 34.957C629.953 34.8789 629.914 34.7865 629.914 34.6797C629.914 34.5703 629.953 34.4779 630.032 34.4023C630.11 34.3242 630.203 34.2852 630.313 34.2852C630.42 34.2852 630.512 34.3242 630.59 34.4023C630.668 34.4779 630.707 34.5703 630.707 34.6797C630.707 34.7865 630.668 34.8789 630.59 34.957C630.512 35.0326 630.42 35.0703 630.313 35.0703ZM632.305 33.7109C632.295 33.2865 632.286 32.8177 632.278 32.3047C632.273 31.7891 632.243 31.2135 632.188 30.5781H632.934C632.877 31.2135 632.845 31.7891 632.84 32.3047C632.835 32.8177 632.827 33.2865 632.817 33.7109H632.305ZM632.555 35.0703C632.446 35.0703 632.352 35.0326 632.274 34.957C632.196 34.8789 632.157 34.7865 632.157 34.6797C632.157 34.5703 632.196 34.4779 632.274 34.4023C632.352 34.3242 632.446 34.2852 632.555 34.2852C632.662 34.2852 632.754 34.3242 632.832 34.4023C632.911 34.4779 632.95 34.5703 632.95 34.6797C632.95 34.7865 632.911 34.8789 632.832 34.957C632.754 35.0326 632.662 35.0703 632.555 35.0703ZM634.547 33.7109C634.537 33.2865 634.528 32.8177 634.52 32.3047C634.515 31.7891 634.485 31.2135 634.43 30.5781H635.176C635.119 31.2135 635.088 31.7891 635.082 32.3047C635.077 32.8177 635.069 33.2865 635.059 33.7109H634.547ZM634.797 35.0703C634.688 35.0703 634.594 35.0326 634.516 34.957C634.438 34.8789 634.399 34.7865 634.399 34.6797C634.399 34.5703 634.438 34.4779 634.516 34.4023C634.594 34.3242 634.688 34.2852 634.797 34.2852C634.904 34.2852 634.996 34.3242 635.075 34.4023C635.153 34.4779 635.192 34.5703 635.192 34.6797C635.192 34.7865 635.153 34.8789 635.075 34.957C634.996 35.0326 634.904 35.0703 634.797 35.0703Z" fill="white"/>
</g>
<path d="M615.858 50V51.7367M616.715 50.8571H615M618 50.8571C618 52.0406 617.041 53 615.858 53C614.674 53 613.715 52.0406 613.715 50.8571C613.715 49.6737 614.674 48.7143 615.858 48.7143C617.041 48.7143 618 49.6737 618 50.8571ZM612.858 49.5714C613.072 48.9286 613.929 48.0714 614.572 47.8571L612 47L612.858 49.5714Z" stroke="white" stroke-width="0.3" stroke-linecap="round" stroke-linejoin="round"/>
</g>
<defs>
<filter id="filter0_bd_191_312" x="605" y="20" width="42" height="29" filterUnits="userSpaceOnUse" color-interpolation-filters="sRGB">
<feFlood flood-opacity="0" result="BackgroundImageFix"/>
<feGaussianBlur in="BackgroundImageFix" stdDeviation="2.5"/>
<feComposite in2="SourceAlpha" operator="in" result="effect1_backgroundBlur_191_312"/>
<feColorMatrix in="SourceAlpha" type="matrix" values="0 0 0 0 0 0 0 0 0 0 0 0 0 0 0 0 0 0 127 0" result="hardAlpha"/>
<feOffset dy="4"/>
<feGaussianBlur stdDeviation="2"/>
<feComposite in2="hardAlpha" operator="out"/>
<feColorMatrix type="matrix" values="0 0 0 0 0 0 0 0 0 0 0 0 0 0 0 0 0 0 0.25 0"/>
<feBlend mode="normal" in2="effect1_backgroundBlur_191_312" result="effect2_dropShadow_191_312"/>
<feBlend mode="normal" in="SourceGraphic" in2="effect2_dropShadow_191_312" result="shape"/>
</filter>
</defs>
</svg>
