<svg width="745" height="246" viewBox="0 0 745 246" fill="none" xmlns="http://www.w3.org/2000/svg">
<g clip-path="url(#clip0_191_224)">
<g opacity="0.5">
<path d="M-5.92932 221.214L182.785 169.641L371.5 118.068L560.215 66.4952L748.929 -10.864" stroke="#252525" stroke-width="2" stroke-linejoin="round"/>
<path d="M182.785 171.277C183.68 171.277 184.356 170.516 184.356 169.641C184.356 168.765 183.68 168.005 182.785 168.005C181.89 168.005 181.215 168.765 181.215 169.641C181.215 170.516 181.89 171.277 182.785 171.277Z" fill="#5C5C5C" fill-opacity="0.5" stroke="#424242"/>
<path d="M371.5 119.704C372.395 119.704 373.071 118.943 373.071 118.068C373.071 117.193 372.395 116.432 371.5 116.432C370.605 116.432 369.929 117.193 369.929 118.068C369.929 118.943 370.605 119.704 371.5 119.704Z" fill="#5C5C5C" fill-opacity="0.5" stroke="#424242"/>
<path d="M560.215 68.1313C561.11 68.1313 561.785 67.3706 561.785 66.4953C561.785 65.6201 561.11 64.8594 560.215 64.8594C559.32 64.8594 558.644 65.6201 558.644 66.4953C558.644 67.3706 559.32 68.1313 560.215 68.1313Z" fill="#5C5C5C" fill-opacity="0.5" stroke="#424242"/>
</g>
<path opacity="0.7" d="M189.143 175V177.316M190.286 176.143H188M192 176.143C192 177.721 190.721 179 189.143 179C187.565 179 186.286 177.721 186.286 176.143C186.286 174.565 187.565 173.286 189.143 173.286C190.721 173.286 192 174.565 192 176.143ZM185.143 174.429C185.429 173.571 186.571 172.429 187.429 172.143L184 171L185.143 174.429Z" stroke="white" stroke-width="0.5" stroke-linecap="round" stroke-linejoin="round"/>
<g opacity="0.8" filter="url(#filter0_bd_191_224)">
<rect x="182" y="147" width="81" height="16" rx="4" fill="#2D2D2D" fill-opacity="0.2" shape-rendering="crispEdges"/>
<rect x="182.25" y="147.25" width="80.5" height="15.5" rx="3.75" stroke="#252525" stroke-opacity="0.5" stroke-width="0.5" shape-rendering="crispEdges"/>
<path d="M189.641 157L188.496 153.793C188.395 153.509 188.315 153.29 188.258 153.137C188.203 152.98 188.151 152.842 188.102 152.723H188.73L189.969 156.43L191.207 152.723H191.836C191.784 152.842 191.727 152.98 191.664 153.137C191.604 153.29 191.525 153.509 191.426 153.793L190.297 157H189.641ZM193.23 157.07C192.954 157.07 192.727 156.988 192.547 156.824C192.367 156.66 192.277 156.47 192.277 156.254C192.277 156.105 192.311 155.957 192.379 155.809C192.449 155.66 192.569 155.531 192.738 155.422C192.91 155.312 193.147 155.243 193.449 155.215C193.517 155.207 193.605 155.198 193.715 155.188C193.824 155.177 193.928 155.168 194.027 155.16C194.129 155.15 194.199 155.143 194.238 155.141V154.922C194.238 154.745 194.176 154.617 194.051 154.539C193.928 154.461 193.757 154.422 193.535 154.422C193.382 154.422 193.227 154.453 193.07 154.516C192.917 154.578 192.755 154.669 192.586 154.789C192.586 154.724 192.589 154.629 192.594 154.504C192.599 154.376 192.605 154.281 192.613 154.219C192.764 154.154 192.922 154.094 193.086 154.039C193.253 153.982 193.447 153.953 193.668 153.953C194.007 153.953 194.276 154.033 194.477 154.191C194.68 154.348 194.781 154.542 194.781 154.773V155.918C194.781 156.129 194.801 156.322 194.84 156.496C194.882 156.668 194.935 156.836 195 157H194.473C194.454 156.953 194.431 156.889 194.402 156.809C194.374 156.728 194.349 156.641 194.328 156.547C194.154 156.732 193.973 156.866 193.785 156.949C193.598 157.03 193.413 157.07 193.23 157.07ZM193.316 156.59C193.467 156.59 193.615 156.559 193.758 156.496C193.904 156.434 194.064 156.285 194.238 156.051V155.551C194.191 155.553 194.118 155.56 194.02 155.57C193.923 155.578 193.824 155.587 193.723 155.598C193.621 155.608 193.539 155.617 193.477 155.625C193.229 155.654 193.055 155.72 192.953 155.824C192.854 155.926 192.805 156.044 192.805 156.18C192.805 156.31 192.85 156.411 192.941 156.484C193.033 156.555 193.158 156.59 193.316 156.59ZM195.836 157V153.691C195.836 153.111 195.816 152.651 195.777 152.312H196.379V155.609C196.379 155.734 196.38 155.887 196.383 156.066C196.388 156.243 196.395 156.417 196.402 156.586C196.413 156.755 196.424 156.893 196.438 157H195.836ZM198.328 157.07C197.703 157.07 197.391 156.652 197.391 155.816C197.391 155.801 197.391 155.751 197.391 155.668C197.391 155.585 197.391 155.49 197.391 155.383C197.391 155.276 197.391 155.181 197.391 155.098C197.391 155.014 197.391 154.965 197.391 154.949C197.391 154.764 197.387 154.605 197.379 154.473C197.374 154.34 197.358 154.186 197.332 154.012H197.934C197.934 154.012 197.934 154.076 197.934 154.203C197.934 154.331 197.934 154.488 197.934 154.676C197.934 154.861 197.934 155.043 197.934 155.223C197.934 155.4 197.934 155.539 197.934 155.641C197.934 155.971 197.97 156.212 198.043 156.363C198.116 156.514 198.245 156.59 198.43 156.59C198.547 156.59 198.669 156.547 198.797 156.461C198.927 156.372 199.047 156.266 199.156 156.141C199.266 156.013 199.346 155.889 199.398 155.77V154.949C199.398 154.757 199.395 154.598 199.387 154.473C199.382 154.345 199.366 154.191 199.34 154.012H199.938C199.938 154.012 199.938 154.07 199.938 154.188C199.938 154.305 199.938 154.453 199.938 154.633C199.938 154.812 199.938 154.997 199.938 155.188C199.938 155.375 199.938 155.54 199.938 155.684C199.938 155.967 199.954 156.217 199.988 156.434C200.022 156.647 200.069 156.836 200.129 157H199.633C199.604 156.932 199.573 156.846 199.539 156.742C199.508 156.635 199.484 156.526 199.469 156.414C199.115 156.852 198.734 157.07 198.328 157.07ZM202.09 157.07C201.842 157.07 201.611 157.013 201.395 156.898C201.181 156.784 201.009 156.613 200.879 156.387C200.749 156.16 200.684 155.882 200.684 155.551C200.684 155.066 200.81 154.68 201.062 154.391C201.315 154.099 201.658 153.953 202.09 153.953C202.413 153.953 202.661 154.025 202.836 154.168C203.01 154.309 203.132 154.486 203.199 154.699C203.27 154.913 203.305 155.13 203.305 155.352C203.305 155.378 203.305 155.415 203.305 155.465C203.305 155.514 203.303 155.553 203.301 155.582H201.121V155.172H202.777C202.777 154.919 202.708 154.727 202.57 154.594C202.432 154.461 202.258 154.395 202.047 154.395C201.789 154.395 201.587 154.486 201.441 154.668C201.298 154.85 201.227 155.135 201.227 155.523C201.227 155.885 201.314 156.154 201.488 156.328C201.665 156.503 201.891 156.59 202.164 156.59C202.352 156.59 202.536 156.569 202.719 156.527C202.901 156.483 203.082 156.406 203.262 156.297L203.32 156.781C203.112 156.888 202.91 156.962 202.715 157.004C202.522 157.048 202.314 157.07 202.09 157.07ZM207.469 157.07C206.935 157.07 206.54 156.927 206.285 156.641C206.03 156.352 205.902 155.969 205.902 155.492V154C205.902 153.711 205.9 153.456 205.895 153.234C205.892 153.01 205.88 152.84 205.859 152.723H206.457V155.359C206.457 155.742 206.529 156.046 206.672 156.27C206.818 156.493 207.083 156.605 207.469 156.605C207.849 156.605 208.109 156.493 208.25 156.27C208.393 156.046 208.465 155.742 208.465 155.359V152.723H209.066C209.048 152.84 209.036 153.007 209.031 153.223C209.026 153.436 209.023 153.695 209.023 154V155.492C209.023 155.969 208.896 156.352 208.641 156.641C208.388 156.927 207.997 157.07 207.469 157.07ZM210.062 158.434C210.062 158.434 210.062 158.354 210.062 158.195C210.062 158.039 210.062 157.839 210.062 157.594C210.062 157.352 210.062 157.098 210.062 156.832C210.062 156.564 210.062 156.316 210.062 156.09C210.062 155.863 210.062 155.694 210.062 155.582C210.062 155.217 210.055 154.906 210.039 154.648C210.023 154.391 209.982 154.178 209.914 154.012H210.441C210.465 154.061 210.487 154.133 210.508 154.227C210.531 154.32 210.548 154.435 210.559 154.57C210.697 154.388 210.858 154.24 211.043 154.125C211.228 154.01 211.428 153.953 211.645 153.953C211.868 153.953 212.064 154.017 212.23 154.145C212.397 154.272 212.526 154.448 212.617 154.672C212.711 154.893 212.758 155.147 212.758 155.434C212.758 155.767 212.698 156.057 212.578 156.305C212.458 156.549 212.297 156.738 212.094 156.871C211.893 157.004 211.671 157.07 211.426 157.07C211.267 157.07 211.125 157.042 211 156.984C210.875 156.927 210.743 156.85 210.605 156.754V157.438C210.605 157.672 210.611 157.865 210.621 158.016C210.634 158.169 210.652 158.309 210.676 158.434H210.062ZM211.426 156.59C211.632 156.59 211.814 156.495 211.973 156.305C212.134 156.115 212.215 155.854 212.215 155.523C212.215 155.198 212.155 154.939 212.035 154.746C211.918 154.551 211.754 154.453 211.543 154.453C211.374 154.453 211.202 154.526 211.027 154.672C210.853 154.818 210.712 155.033 210.605 155.316V156.238C210.806 156.379 210.958 156.473 211.062 156.52C211.169 156.566 211.29 156.59 211.426 156.59ZM214.516 157.07C214.159 157.07 213.874 156.941 213.66 156.684C213.449 156.426 213.344 156.082 213.344 155.652C213.344 155.306 213.405 155.007 213.527 154.754C213.652 154.499 213.82 154.302 214.031 154.164C214.242 154.023 214.478 153.953 214.738 153.953C214.861 153.953 214.992 153.979 215.133 154.031C215.273 154.081 215.4 154.138 215.512 154.203V153.383C215.512 153.148 215.507 152.943 215.496 152.766C215.488 152.586 215.47 152.435 215.441 152.312H216.055V155.449C216.055 155.819 216.076 156.129 216.117 156.379C216.159 156.629 216.211 156.836 216.273 157H215.746C215.725 156.951 215.699 156.875 215.668 156.773C215.639 156.672 215.612 156.568 215.586 156.461C215.299 156.867 214.943 157.07 214.516 157.07ZM214.621 156.605C214.741 156.605 214.858 156.568 214.973 156.492C215.09 156.417 215.195 156.319 215.289 156.199C215.385 156.079 215.46 155.956 215.512 155.828V154.672C215.368 154.594 215.24 154.538 215.125 154.504C215.013 154.47 214.884 154.453 214.738 154.453C214.517 154.453 214.319 154.552 214.145 154.75C213.973 154.945 213.887 155.217 213.887 155.566C213.887 155.905 213.945 156.163 214.062 156.34C214.18 156.517 214.366 156.605 214.621 156.605ZM217.754 157.07C217.478 157.07 217.25 156.988 217.07 156.824C216.891 156.66 216.801 156.47 216.801 156.254C216.801 156.105 216.835 155.957 216.902 155.809C216.973 155.66 217.092 155.531 217.262 155.422C217.434 155.312 217.671 155.243 217.973 155.215C218.04 155.207 218.129 155.198 218.238 155.188C218.348 155.177 218.452 155.168 218.551 155.16C218.652 155.15 218.723 155.143 218.762 155.141V154.922C218.762 154.745 218.699 154.617 218.574 154.539C218.452 154.461 218.28 154.422 218.059 154.422C217.905 154.422 217.75 154.453 217.594 154.516C217.44 154.578 217.279 154.669 217.109 154.789C217.109 154.724 217.112 154.629 217.117 154.504C217.122 154.376 217.129 154.281 217.137 154.219C217.288 154.154 217.445 154.094 217.609 154.039C217.776 153.982 217.97 153.953 218.191 153.953C218.53 153.953 218.799 154.033 219 154.191C219.203 154.348 219.305 154.542 219.305 154.773V155.918C219.305 156.129 219.324 156.322 219.363 156.496C219.405 156.668 219.458 156.836 219.523 157H218.996C218.978 156.953 218.954 156.889 218.926 156.809C218.897 156.728 218.872 156.641 218.852 156.547C218.677 156.732 218.496 156.866 218.309 156.949C218.121 157.03 217.936 157.07 217.754 157.07ZM217.84 156.59C217.991 156.59 218.138 156.559 218.281 156.496C218.427 156.434 218.587 156.285 218.762 156.051V155.551C218.715 155.553 218.642 155.56 218.543 155.57C218.447 155.578 218.348 155.587 218.246 155.598C218.145 155.608 218.062 155.617 218 155.625C217.753 155.654 217.578 155.72 217.477 155.824C217.378 155.926 217.328 156.044 217.328 156.18C217.328 156.31 217.374 156.411 217.465 156.484C217.556 156.555 217.681 156.59 217.84 156.59ZM221.305 157.07C221.076 157.07 220.88 157.012 220.719 156.895C220.557 156.777 220.477 156.549 220.477 156.211C220.477 156.13 220.477 156 220.477 155.82C220.477 155.638 220.477 155.431 220.477 155.199C220.477 154.967 220.477 154.732 220.477 154.492C220.477 154.25 220.477 154.026 220.477 153.82C220.477 153.615 220.477 153.449 220.477 153.324C220.477 153.197 220.477 153.133 220.477 153.133H221.02C221.02 153.133 221.02 153.19 221.02 153.305C221.02 153.417 221.02 153.565 221.02 153.75C221.02 153.932 221.02 154.13 221.02 154.344C221.02 154.557 221.02 154.767 221.02 154.973C221.02 155.178 221.02 155.361 221.02 155.52C221.02 155.678 221.02 155.792 221.02 155.859C221.02 156.159 221.048 156.355 221.105 156.449C221.165 156.543 221.262 156.59 221.395 156.59C221.559 156.59 221.771 156.517 222.031 156.371V156.84C221.896 156.926 221.766 156.986 221.641 157.02C221.518 157.053 221.406 157.07 221.305 157.07ZM219.891 154.512V154.086H221.973V154.512H219.891ZM223.934 157.07C223.686 157.07 223.454 157.013 223.238 156.898C223.025 156.784 222.853 156.613 222.723 156.387C222.592 156.16 222.527 155.882 222.527 155.551C222.527 155.066 222.654 154.68 222.906 154.391C223.159 154.099 223.501 153.953 223.934 153.953C224.257 153.953 224.505 154.025 224.68 154.168C224.854 154.309 224.975 154.486 225.043 154.699C225.113 154.913 225.148 155.13 225.148 155.352C225.148 155.378 225.148 155.415 225.148 155.465C225.148 155.514 225.147 155.553 225.145 155.582H222.965V155.172H224.621C224.621 154.919 224.552 154.727 224.414 154.594C224.276 154.461 224.102 154.395 223.891 154.395C223.633 154.395 223.431 154.486 223.285 154.668C223.142 154.85 223.07 155.135 223.07 155.523C223.07 155.885 223.158 156.154 223.332 156.328C223.509 156.503 223.734 156.59 224.008 156.59C224.195 156.59 224.38 156.569 224.562 156.527C224.745 156.483 224.926 156.406 225.105 156.297L225.164 156.781C224.956 156.888 224.754 156.962 224.559 157.004C224.366 157.048 224.158 157.07 223.934 157.07ZM226.398 155.082C226.289 155.082 226.195 155.043 226.117 154.965C226.039 154.887 226 154.794 226 154.688C226 154.578 226.039 154.486 226.117 154.41C226.195 154.332 226.289 154.293 226.398 154.293C226.505 154.293 226.598 154.332 226.676 154.41C226.754 154.486 226.793 154.578 226.793 154.688C226.793 154.794 226.754 154.887 226.676 154.965C226.598 155.043 226.505 155.082 226.398 155.082ZM226.398 157.07C226.289 157.07 226.195 157.033 226.117 156.957C226.039 156.879 226 156.786 226 156.68C226 156.57 226.039 156.478 226.117 156.402C226.195 156.324 226.289 156.285 226.398 156.285C226.505 156.285 226.598 156.324 226.676 156.402C226.754 156.478 226.793 156.57 226.793 156.68C226.793 156.786 226.754 156.879 226.676 156.957C226.598 157.033 226.505 157.07 226.398 157.07Z" fill="white"/>
<path d="M230.645 156.168V153.543H231.086V156.168H230.645ZM229.562 155.066V154.629H232.168V155.066H229.562ZM234.242 157V153.395L233.398 153.938L233.32 153.41L234.242 152.801H234.809V155.598C234.809 155.725 234.811 155.879 234.816 156.059C234.822 156.236 234.828 156.41 234.836 156.582C234.846 156.754 234.857 156.893 234.867 157H234.242ZM237.656 157.07C237.43 157.07 237.229 157.048 237.055 157.004C236.883 156.96 236.704 156.88 236.52 156.766L236.609 156.152C236.805 156.311 236.982 156.417 237.141 156.469C237.302 156.521 237.486 156.547 237.691 156.547C237.986 156.547 238.225 156.467 238.41 156.309C238.595 156.15 238.688 155.928 238.688 155.645C238.688 155.452 238.632 155.297 238.52 155.18C238.41 155.062 238.273 154.978 238.109 154.926C237.948 154.871 237.789 154.844 237.633 154.844C237.479 154.844 237.332 154.858 237.191 154.887C237.053 154.915 236.893 154.965 236.711 155.035V152.84H239.07V153.398C238.958 153.375 238.845 153.359 238.73 153.352C238.618 153.344 238.501 153.34 238.379 153.34H237.254V154.344C237.298 154.339 237.363 154.333 237.449 154.328C237.535 154.32 237.63 154.316 237.734 154.316C238.016 154.316 238.27 154.374 238.496 154.488C238.725 154.6 238.908 154.755 239.043 154.953C239.178 155.148 239.246 155.374 239.246 155.629C239.246 155.926 239.177 156.182 239.039 156.398C238.901 156.615 238.712 156.781 238.473 156.898C238.236 157.013 237.964 157.07 237.656 157.07ZM240.594 157.07C240.484 157.07 240.391 157.033 240.312 156.957C240.234 156.879 240.195 156.786 240.195 156.68C240.195 156.57 240.234 156.478 240.312 156.402C240.391 156.324 240.484 156.285 240.594 156.285C240.701 156.285 240.793 156.324 240.871 156.402C240.949 156.478 240.988 156.57 240.988 156.68C240.988 156.786 240.949 156.879 240.871 156.957C240.793 157.033 240.701 157.07 240.594 157.07ZM242.336 157C242.497 156.466 242.66 155.992 242.824 155.578C242.991 155.161 243.172 154.773 243.367 154.414C243.565 154.052 243.789 153.689 244.039 153.324H242.898C242.622 153.324 242.396 153.328 242.219 153.336C242.042 153.344 241.897 153.359 241.785 153.383V152.84H244.684V153.309C244.246 153.902 243.882 154.508 243.59 155.125C243.301 155.742 243.064 156.367 242.879 157H242.336ZM246.641 157.07C246.383 157.07 246.145 157.026 245.926 156.938C245.707 156.849 245.521 156.733 245.367 156.59L245.441 155.961C245.603 156.141 245.786 156.286 245.992 156.398C246.201 156.508 246.436 156.562 246.699 156.562C247.009 156.562 247.241 156.49 247.395 156.344C247.551 156.198 247.629 156.034 247.629 155.852C247.629 155.716 247.586 155.586 247.5 155.461C247.414 155.333 247.284 155.228 247.109 155.145C246.935 155.061 246.716 155.02 246.453 155.02H246.246V154.523H246.453C246.648 154.523 246.828 154.49 246.992 154.422C247.156 154.354 247.288 154.268 247.387 154.164C247.486 154.057 247.535 153.951 247.535 153.844C247.535 153.719 247.496 153.616 247.418 153.535C247.34 153.452 247.242 153.391 247.125 153.352C247.01 153.312 246.893 153.293 246.773 153.293C246.549 153.293 246.352 153.327 246.18 153.395C246.01 153.46 245.842 153.577 245.676 153.746L245.574 153.25C245.691 153.115 245.854 153.003 246.062 152.914C246.273 152.826 246.501 152.781 246.746 152.781C246.988 152.781 247.211 152.822 247.414 152.902C247.62 152.983 247.784 153.098 247.906 153.246C248.031 153.392 248.094 153.566 248.094 153.77C248.094 153.936 248.044 154.087 247.945 154.223C247.846 154.355 247.724 154.466 247.578 154.555C247.435 154.641 247.294 154.698 247.156 154.727C247.513 154.815 247.776 154.964 247.945 155.172C248.117 155.38 248.203 155.603 248.203 155.84C248.203 156.043 248.142 156.238 248.02 156.426C247.9 156.613 247.723 156.768 247.488 156.891C247.257 157.01 246.974 157.07 246.641 157.07ZM250.156 157.07C249.898 157.07 249.66 157.026 249.441 156.938C249.223 156.849 249.036 156.733 248.883 156.59L248.957 155.961C249.118 156.141 249.302 156.286 249.508 156.398C249.716 156.508 249.952 156.562 250.215 156.562C250.525 156.562 250.757 156.49 250.91 156.344C251.066 156.198 251.145 156.034 251.145 155.852C251.145 155.716 251.102 155.586 251.016 155.461C250.93 155.333 250.799 155.228 250.625 155.145C250.451 155.061 250.232 155.02 249.969 155.02H249.762V154.523H249.969C250.164 154.523 250.344 154.49 250.508 154.422C250.672 154.354 250.803 154.268 250.902 154.164C251.001 154.057 251.051 153.951 251.051 153.844C251.051 153.719 251.012 153.616 250.934 153.535C250.855 153.452 250.758 153.391 250.641 153.352C250.526 153.312 250.409 153.293 250.289 153.293C250.065 153.293 249.867 153.327 249.695 153.395C249.526 153.46 249.358 153.577 249.191 153.746L249.09 153.25C249.207 153.115 249.37 153.003 249.578 152.914C249.789 152.826 250.017 152.781 250.262 152.781C250.504 152.781 250.727 152.822 250.93 152.902C251.135 152.983 251.299 153.098 251.422 153.246C251.547 153.392 251.609 153.566 251.609 153.77C251.609 153.936 251.56 154.087 251.461 154.223C251.362 154.355 251.24 154.466 251.094 154.555C250.951 154.641 250.81 154.698 250.672 154.727C251.029 154.815 251.292 154.964 251.461 155.172C251.633 155.38 251.719 155.603 251.719 155.84C251.719 156.043 251.658 156.238 251.535 156.426C251.415 156.613 251.238 156.768 251.004 156.891C250.772 157.01 250.49 157.07 250.156 157.07ZM252.93 157.07L255.219 152.664H255.707L253.422 157.07H252.93ZM253.219 154.996C252.964 154.996 252.758 154.908 252.602 154.73C252.448 154.551 252.371 154.255 252.371 153.844C252.371 153.43 252.453 153.13 252.617 152.945C252.781 152.758 252.991 152.664 253.246 152.664C253.501 152.664 253.707 152.755 253.863 152.938C254.02 153.12 254.098 153.411 254.098 153.812C254.098 154.245 254.014 154.551 253.848 154.73C253.684 154.908 253.474 154.996 253.219 154.996ZM253.23 154.586C253.358 154.586 253.453 154.53 253.516 154.418C253.581 154.306 253.613 154.116 253.613 153.848C253.613 153.553 253.582 153.352 253.52 153.242C253.46 153.13 253.363 153.074 253.23 153.074C253.103 153.074 253.008 153.129 252.945 153.238C252.883 153.345 252.852 153.534 252.852 153.805C252.852 154.096 252.882 154.299 252.941 154.414C253.004 154.529 253.1 154.586 253.23 154.586ZM255.375 157.07C255.12 157.07 254.914 156.983 254.758 156.809C254.604 156.632 254.527 156.336 254.527 155.922C254.527 155.51 254.609 155.212 254.773 155.027C254.938 154.84 255.147 154.746 255.402 154.746C255.658 154.746 255.863 154.837 256.02 155.02C256.176 155.199 256.254 155.49 256.254 155.891C256.254 156.323 256.171 156.628 256.004 156.805C255.84 156.982 255.63 157.07 255.375 157.07ZM255.387 156.664C255.514 156.664 255.609 156.609 255.672 156.5C255.737 156.388 255.77 156.198 255.77 155.93C255.77 155.635 255.738 155.434 255.676 155.324C255.616 155.212 255.52 155.156 255.387 155.156C255.259 155.156 255.164 155.211 255.102 155.32C255.039 155.427 255.008 155.616 255.008 155.887C255.008 156.178 255.038 156.382 255.098 156.496C255.16 156.608 255.257 156.664 255.387 156.664Z" fill="#2C9937"/>
</g>
<g opacity="0.8">
<rect x="536" y="144" width="51" height="16" rx="4" fill="#545454" fill-opacity="0.2"/>
<rect x="536.25" y="144.25" width="50.5" height="15.5" rx="3.75" stroke="#252525" stroke-opacity="0.5" stroke-width="0.5"/>
<path d="M544.18 154.07C543.812 154.07 543.486 153.987 543.199 153.82C542.913 153.651 542.688 153.405 542.523 153.082C542.359 152.757 542.277 152.359 542.277 151.891C542.277 151.422 542.367 151.021 542.547 150.688C542.729 150.354 542.973 150.099 543.277 149.922C543.585 149.742 543.924 149.652 544.297 149.652C544.536 149.652 544.764 149.678 544.98 149.73C545.197 149.78 545.434 149.891 545.691 150.062L545.5 150.59C545.281 150.413 545.074 150.296 544.879 150.238C544.686 150.178 544.492 150.148 544.297 150.148C543.852 150.148 543.499 150.299 543.238 150.602C542.978 150.901 542.848 151.307 542.848 151.82C542.848 152.359 542.971 152.785 543.219 153.098C543.466 153.408 543.798 153.562 544.215 153.562C544.392 153.562 544.552 153.543 544.695 153.504C544.839 153.465 544.999 153.392 545.176 153.285V152.301H544.152V151.82H545.734V153.547C545.435 153.758 545.164 153.898 544.922 153.969C544.682 154.036 544.435 154.07 544.18 154.07ZM548.242 154.07C547.708 154.07 547.314 153.927 547.059 153.641C546.803 153.352 546.676 152.969 546.676 152.492V151C546.676 150.711 546.673 150.456 546.668 150.234C546.665 150.01 546.654 149.84 546.633 149.723H547.23V152.359C547.23 152.742 547.302 153.046 547.445 153.27C547.591 153.493 547.857 153.605 548.242 153.605C548.622 153.605 548.883 153.493 549.023 153.27C549.167 153.046 549.238 152.742 549.238 152.359V149.723H549.84C549.822 149.84 549.81 150.007 549.805 150.223C549.799 150.436 549.797 150.695 549.797 151V152.492C549.797 152.969 549.669 153.352 549.414 153.641C549.161 153.927 548.771 154.07 548.242 154.07ZM550.5 154C550.552 153.883 550.608 153.749 550.668 153.598C550.73 153.447 550.811 153.234 550.91 152.961L552.082 149.723H552.711L553.883 152.961C553.982 153.234 554.062 153.447 554.125 153.598C554.188 153.749 554.243 153.883 554.293 154H553.691L553.293 152.875H551.492L551.098 154H550.5ZM551.648 152.418H553.137L552.387 150.297L551.648 152.418ZM554.938 154C554.958 153.883 554.97 153.714 554.973 153.492C554.978 153.271 554.98 153.016 554.98 152.727V151.07C554.98 150.784 554.978 150.517 554.973 150.27C554.97 150.022 554.958 149.84 554.938 149.723C554.938 149.723 555.049 149.719 555.273 149.711C555.497 149.701 555.78 149.695 556.121 149.695C556.579 149.695 556.951 149.79 557.234 149.98C557.518 150.168 557.66 150.473 557.66 150.895C557.66 151.126 557.615 151.324 557.523 151.488C557.432 151.65 557.315 151.781 557.172 151.883C557.031 151.982 556.882 152.055 556.723 152.102C556.566 152.148 556.421 152.172 556.285 152.172H555.535V152.727C555.535 153.016 555.538 153.272 555.543 153.496C555.548 153.717 555.561 153.885 555.582 154H554.938ZM557.367 154L556.109 152.141L556.562 151.922C556.562 151.922 556.595 151.967 556.66 152.059C556.728 152.15 556.814 152.268 556.918 152.414C557.025 152.557 557.139 152.714 557.262 152.883C557.387 153.049 557.508 153.212 557.625 153.371C557.742 153.527 557.845 153.663 557.934 153.777C558.022 153.889 558.082 153.964 558.113 154H557.367ZM555.535 151.715H556.094C556.424 151.715 556.676 151.647 556.848 151.512C557.02 151.374 557.105 151.184 557.105 150.941C557.105 150.689 557.026 150.496 556.867 150.363C556.711 150.23 556.453 150.164 556.094 150.164C555.99 150.164 555.889 150.165 555.793 150.168C555.699 150.171 555.613 150.174 555.535 150.18V151.715ZM558.406 154C558.458 153.883 558.514 153.749 558.574 153.598C558.637 153.447 558.717 153.234 558.816 152.961L559.988 149.723H560.617L561.789 152.961C561.888 153.234 561.969 153.447 562.031 153.598C562.094 153.749 562.15 153.883 562.199 154H561.598L561.199 152.875H559.398L559.004 154H558.406ZM559.555 152.418H561.043L560.293 150.297L559.555 152.418ZM565.699 154L562.961 150.031L563.371 149.723L566.109 153.707L565.699 154ZM562.844 154C562.865 153.883 562.876 153.714 562.879 153.492C562.884 153.271 562.887 153.016 562.887 152.727V151C562.887 150.711 562.884 150.456 562.879 150.234C562.876 150.01 562.865 149.84 562.844 149.723H563.371V154H562.844ZM565.699 154V149.723H566.227C566.206 149.84 566.193 150.01 566.188 150.234C566.185 150.456 566.184 150.711 566.184 151V154H565.699ZM568.25 154C568.276 153.883 568.292 153.714 568.297 153.492C568.305 153.271 568.309 153.016 568.309 152.727V150.207H567.621C567.491 150.207 567.367 150.211 567.25 150.219C567.135 150.224 567.02 150.24 566.902 150.266V149.723H570.289V150.266C570.172 150.24 570.055 150.224 569.938 150.219C569.823 150.211 569.701 150.207 569.57 150.207H568.867V152.727C568.867 153.016 568.87 153.271 568.875 153.492C568.883 153.714 568.9 153.883 568.926 154H568.25ZM570.945 154C570.966 153.883 570.978 153.714 570.98 153.492C570.986 153.271 570.988 153.016 570.988 152.727V151C570.988 150.711 570.986 150.456 570.98 150.234C570.978 150.01 570.966 149.84 570.945 149.723H573.434V150.207H571.543V151.527H573.215V151.996H571.543V153.52H572.316C572.605 153.52 572.849 153.517 573.047 153.512C573.247 153.507 573.406 153.493 573.523 153.473V154H570.945ZM574.344 154C574.365 153.883 574.376 153.714 574.379 153.492C574.384 153.271 574.387 153.016 574.387 152.727V151C574.387 150.711 574.384 150.456 574.379 150.234C574.376 150.01 574.365 149.84 574.344 149.723H576.832V150.207H574.941V151.527H576.613V151.996H574.941V153.52H575.715C576.004 153.52 576.247 153.517 576.445 153.512C576.646 153.507 576.805 153.493 576.922 153.473V154H574.344ZM578.809 153.168V150.543H579.25V153.168H578.809ZM577.727 152.066V151.629H580.332V152.066H577.727Z" fill="#E8E8E8"/>
</g>
<g opacity="0.3">
<path d="M80.0032 -19V248.936" stroke="#242424" stroke-dasharray="4 2"/>
<path d="M194.878 -19V248.936" stroke="#242424" stroke-dasharray="4 2"/>
<path d="M309.752 -19V248.936" stroke="#242424" stroke-dasharray="4 2"/>
<path d="M424.627 -19V248.936" stroke="#242424" stroke-dasharray="4 2"/>
<path d="M539.5 -19V248.936" stroke="#242424" stroke-dasharray="4 2"/>
<path d="M654.374 -19V248.936" stroke="#242424" stroke-dasharray="4 2"/>
<path d="M386.797 16.95L-36.9987 18.235" stroke="#242424" stroke-dasharray="4 2"/>
<path d="M387.348 89.5742L-36.4477 90.8593" stroke="#242424" stroke-dasharray="4 2"/>
<path d="M387.899 162.199L-35.897 163.484" stroke="#242424" stroke-dasharray="4 2"/>
<path d="M388.45 234.824L-35.346 236.109" stroke="#242424" stroke-dasharray="4 2"/>
<path d="M813.349 15.731L389.554 17.016" stroke="#242424" stroke-dasharray="4 2"/>
<path d="M810.632 88.2568L386.836 89.5419" stroke="#242424" stroke-dasharray="4 2"/>
<path d="M813.863 160.783L390.068 162.068" stroke="#242424" stroke-dasharray="4 2"/>
<path d="M813.863 233.309L390.068 234.594" stroke="#242424" stroke-dasharray="4 2"/>
</g>
</g>
<defs>
<filter id="filter0_bd_191_224" x="177" y="142" width="91" height="29" filterUnits="userSpaceOnUse" color-interpolation-filters="sRGB">
<feFlood flood-opacity="0" result="BackgroundImageFix"/>
<feGaussianBlur in="BackgroundImageFix" stdDeviation="2.5"/>
<feComposite in2="SourceAlpha" operator="in" result="effect1_backgroundBlur_191_224"/>
<feColorMatrix in="SourceAlpha" type="matrix" values="0 0 0 0 0 0 0 0 0 0 0 0 0 0 0 0 0 0 127 0" result="hardAlpha"/>
<feOffset dy="4"/>
<feGaussianBlur stdDeviation="2"/>
<feComposite in2="hardAlpha" operator="out"/>
<feColorMatrix type="matrix" values="0 0 0 0 0 0 0 0 0 0 0 0 0 0 0 0 0 0 0.25 0"/>
<feBlend mode="normal" in2="effect1_backgroundBlur_191_224" result="effect2_dropShadow_191_224"/>
<feBlend mode="normal" in="SourceGraphic" in2="effect2_dropShadow_191_224" result="shape"/>
</filter>
<clipPath id="clip0_191_224">
<rect width="745" height="246" fill="white"/>
</clipPath>
</defs>
</svg>
