<svg width="37" height="38" viewBox="0 0 37 38" fill="none" xmlns="http://www.w3.org/2000/svg">
<rect y="0.75" width="36.5" height="36.5" rx="18.25" fill="white"/>
<path fill-rule="evenodd" clip-rule="evenodd" d="M14.5 10.75L25.75 10.75C25.9489 10.75 26.1397 10.829 26.2803 10.9697C26.421 11.1103 26.5 11.3011 26.5 11.5V22.75C26.5 23.1642 26.1642 23.5 25.75 23.5C25.3358 23.5 25 23.1642 25 22.75V13.3107L11.2803 27.0303C10.9874 27.3232 10.5126 27.3232 10.2197 27.0303C9.92678 26.7374 9.92678 26.2626 10.2197 25.9697L23.9393 12.25L14.5 12.25C14.0858 12.25 13.75 11.9142 13.75 11.5C13.75 11.0858 14.0858 10.75 14.5 10.75Z" fill="black"/>
</svg>
