<svg width="18" height="17" viewBox="0 0 18 17" fill="none" xmlns="http://www.w3.org/2000/svg">
<path d="M9.86263 1.46005L11.4815 4.22128C11.7635 4.70225 12.2334 5.04369 12.778 5.16324L15.9043 5.84958C16.6504 6.01338 16.9448 6.91941 16.4375 7.49048L14.3116 9.88335C13.9413 10.3002 13.7618 10.8526 13.8164 11.4075L14.1297 14.5929C14.2045 15.3531 13.4338 15.9131 12.7339 15.607L9.80124 14.3247C9.2904 14.1013 8.70952 14.1013 8.19869 14.3247L5.26601 15.607C4.56611 15.9131 3.7954 15.3531 3.87018 14.5929L4.18352 11.4075C4.2381 10.8526 4.0586 10.3002 3.6883 9.88335L1.56247 7.49048C1.05512 6.91941 1.34951 6.01338 2.09563 5.84958L5.22196 5.16324C5.76653 5.04369 6.23647 4.70225 6.51845 4.22128L8.13729 1.46006C8.52363 0.801072 9.47629 0.801072 9.86263 1.46005Z" stroke="#FFCE22"/>
</svg>
