<svg width="86" height="22" viewBox="0 0 86 22" fill="none" xmlns="http://www.w3.org/2000/svg">
<path d="M0 0.106323H44.5427V21.8937H0V0.106323Z" fill="#F9F6F2"/>
<path d="M16.9102 6.47937L12.8539 15.8475H10.7204L6.67285 6.47937H9.01709L11.8706 13.1697L14.7592 6.47937H16.9102Z" fill="black"/>
<path d="M20.7686 6.47937H22.9372V15.8475H20.7686V6.47937Z" fill="black"/>
<path d="M36.6414 6.47937V15.8475H34.8591L30.1882 10.1582V15.8475H28.0459V6.47937H29.8458L34.4991 12.1688V6.47937H36.6414Z" fill="black"/>
<path d="M55.1427 13.8722H50.4543L49.6729 15.8477H46.8721L51.4991 5.12744H54.2999L58.8215 15.8477H55.9066L55.1427 13.8722ZM54.3438 11.809L52.8161 7.84043L51.2532 11.809H54.3438Z" fill="#F9F6F2"/>
<path d="M69.5821 15.8477L67.993 12.8274H65.8507V15.8477H63.1201V5.12744H67.9139C69.3297 5.12744 70.425 5.4523 71.1976 6.10201C71.9747 6.75173 72.3654 7.67362 72.3654 8.86768C72.3654 10.5183 71.7178 11.6663 70.425 12.3094L72.6727 15.8477H69.5821ZM65.8507 10.6851H67.9139C68.5044 10.6851 68.9631 10.5403 69.2924 10.2461C69.6194 9.94761 69.7841 9.5174 69.7841 8.95548C69.7841 8.40674 69.6194 7.9875 69.2924 7.69996C68.9631 7.41461 68.5044 7.26974 67.9139 7.26974H65.8507V10.6851Z" fill="#F9F6F2"/>
<path d="M85.7043 7.32204H82.4733V15.8473H79.7515V7.32204H76.5469V5.1095H85.7043V7.32204Z" fill="#F9F6F2"/>
</svg>
