<svg width="18" height="18" viewBox="0 0 18 18" fill="none" xmlns="http://www.w3.org/2000/svg">
<path fill-rule="evenodd" clip-rule="evenodd" d="M1.79999 4.27498C1.79999 3.90218 2.1022 3.59998 2.47499 3.59998H15.525C15.8978 3.59998 16.2 3.90218 16.2 4.27498C16.2 4.64777 15.8978 4.94998 15.525 4.94998H2.47499C2.1022 4.94998 1.79999 4.64777 1.79999 4.27498ZM8.09999 13.725C8.09999 13.3522 8.4022 13.05 8.77499 13.05H15.525C15.8978 13.05 16.2 13.3522 16.2 13.725C16.2 14.0978 15.8978 14.4 15.525 14.4H8.77499C8.4022 14.4 8.09999 14.0978 8.09999 13.725Z" fill="white"/>
<path fill-rule="evenodd" clip-rule="evenodd" d="M1.79999 8.99995C1.79999 8.62716 2.1022 8.32495 2.47499 8.32495H15.525C15.8978 8.32495 16.2 8.62716 16.2 8.99995C16.2 9.37274 15.8978 9.67495 15.525 9.67495H2.47499C2.1022 9.67495 1.79999 9.37274 1.79999 8.99995Z" fill="white"/>
</svg>
