<svg width="18" height="18" viewBox="0 0 18 18" fill="none" xmlns="http://www.w3.org/2000/svg">
<path fill-rule="evenodd" clip-rule="evenodd" d="M2.25 5.0625C2.25 4.75184 2.50184 4.5 2.8125 4.5H15.1875C15.4982 4.5 15.75 4.75184 15.75 5.0625C15.75 5.37316 15.4982 5.625 15.1875 5.625H2.8125C2.50184 5.625 2.25 5.37316 2.25 5.0625ZM2.25 9C2.25 8.68934 2.50184 8.4375 2.8125 8.4375H15.1875C15.4982 8.4375 15.75 8.68934 15.75 9C15.75 9.31066 15.4982 9.5625 15.1875 9.5625H2.8125C2.50184 9.5625 2.25 9.31066 2.25 9ZM2.25 12.9375C2.25 12.6268 2.50184 12.375 2.8125 12.375H9C9.31066 12.375 9.5625 12.6268 9.5625 12.9375C9.5625 13.2482 9.31066 13.5 9 13.5H2.8125C2.50184 13.5 2.25 13.2482 2.25 12.9375Z" fill="white"/>
</svg>
